#N canvas 510 23 913 755 10;
#X obj 49 72 receive #touch;
#X obj 13 252 bng 15 250 50 0 empty empty empty 17 7 0 10 -262144 -1
-1;
#X obj 47 207 s aDur;
#X obj 96 207 s aAttack;
#X obj 167 207 s aDesvol;
#X obj 239 207 s aPitch;
#X obj 303 207 s aChirp;
#X obj 370 207 s aLfnDepth;
#X obj 458 207 s aLfnFreq;
#X obj 540 207 s aAmDepth;
#X obj 622 207 s aAmFreq;
#X obj 698 229 s aRichness;
#X obj 49 112 route aTrigger abstract;
#X text 217 104 pointer duration attack desvol pitch chirp lfndepth
lfnfreq amdepth amfreq richness curve;
#N canvas 533 257 565 521 lfn 0;
#X obj 79 79 inlet;
#X obj 79 295 + 0;
#X obj 303 65 r aLfnFreq;
#X obj 153 80 r aLfnDepth;
#X obj 303 90 expr 1000/$f1;
#X obj 250 121 metro 20;
#X obj 251 143 random;
#X obj 250 39 loadbang;
#X msg 250 66 1;
#X obj 121 197 -;
#X obj 121 110 * 0, f 5;
#X obj 121 151 / 2;
#X obj 121 174 swap;
#X obj 79 377 +;
#X obj 150 282 noise~;
#X obj 150 308 *~ 0.5;
#X obj 150 337 snapshot~;
#X text 153 360 This part only adda small noise deviation to make it
slightly more natural.;
#X obj 79 429 outlet;
#X text 75 51 Frequency in;
#X text 129 428 Frequency out;
#X obj 121 244 line;
#X msg 121 221 \$1 50;
#X connect 0 0 1 0;
#X connect 0 0 10 0;
#X connect 1 0 13 0;
#X connect 2 0 4 0;
#X connect 3 0 10 1;
#X connect 4 0 5 1;
#X connect 5 0 6 0;
#X connect 5 0 16 0;
#X connect 6 0 12 1;
#X connect 7 0 8 0;
#X connect 8 0 5 0;
#X connect 9 0 22 0;
#X connect 10 0 6 1;
#X connect 10 0 11 0;
#X connect 11 0 12 0;
#X connect 12 0 9 0;
#X connect 12 1 9 1;
#X connect 13 0 18 0;
#X connect 14 0 15 0;
#X connect 15 0 16 0;
#X connect 16 0 13 1;
#X connect 21 0 1 1;
#X connect 22 0 21 0;
#X restore 14 330 pd lfn;
#X text 232 233 lfnFreq has a lower bound of 0.001. Because 0Hz actually
makes metro output rapidly.;
#X obj 14 365 osc~, f 5;
#N canvas 128 223 432 411 rect 0;
#X obj 110 126 inlet;
#X text 110 96 Freq;
#X obj 110 159 phasor~;
#X obj 110 191 expr~ $v1 > 0.5;
#X obj 110 218 outlet~;
#X connect 0 0 2 0;
#X connect 2 0 3 0;
#X connect 3 0 4 0;
#X restore 82 365 pd rect;
#X obj 14 397 *~;
#X obj 82 397 *~;
#N canvas 489 23 791 755 env 0;
#X obj 179 177 r aDur;
#X obj 243 176 r aAttack;
#X obj 113 180 inlet;
#X text 109 156 trigger;
#X text 181 153 in sec;
#X text 366 175 p = 10 log(p/p0);
#X text 366 198 u = 20 log(u/u0);
#X obj 110 631 vline~;
#X text 242 155 %: 1% - 80%;
#X obj 179 202 * 1000;
#X obj 110 658 outlet~;
#X msg 110 548 1;
#X obj 204 422 r aDesvol;
#X text 426 660 \$2: att * dur;
#X text 426 680 \$3: desVol;
#X text 426 700 \$4: 0.95dur - att * dur \; att < 0.5;
#X text 426 720 \$5: 0.05dur;
#X text 426 737 \$6: 0.95dur;
#X obj 110 577 pack f f f f f f, f 34;
#X obj 161 240 *;
#X msg 110 604 0.75 \$2 \, \$3 \$4 \$2 \, 0 \$5 \$6;
#X obj 351 490 * 0.95;
#X obj 306 515 f;
#X obj 306 490 t b f;
#X obj 306 541 -;
#X obj 406 489 * 0.05;
#X obj 204 446 expr pow(10 \, $f1/20);
#X text 200 403 in dB;
#X connect 0 0 9 0;
#X connect 1 0 19 0;
#X connect 2 0 11 0;
#X connect 7 0 10 0;
#X connect 9 0 19 1;
#X connect 9 0 21 0;
#X connect 9 0 25 0;
#X connect 11 0 18 0;
#X connect 12 0 26 0;
#X connect 18 0 20 0;
#X connect 19 0 18 1;
#X connect 19 0 23 0;
#X connect 20 0 7 0;
#X connect 21 0 22 1;
#X connect 21 0 18 5;
#X connect 22 0 24 0;
#X connect 23 0 22 0;
#X connect 23 1 24 1;
#X connect 24 0 18 3;
#X connect 25 0 18 4;
#X connect 26 0 18 2;
#X restore 170 302 pd env;
#N canvas 77 176 459 602 pitchChirpAbstract 1;
#X obj 129 143 inlet;
#X obj 129 448 outlet;
#X obj 129 271 f;
#X obj 129 362 line;
#X msg 129 339 \$1 \, \$2 \$3;
#X obj 129 310 pack f f f;
#X obj 196 231 r aDur;
#X obj 248 99 r aChirp;
#X obj 129 406 mtof;
#X obj 181 205 +;
#X text 110 118 input bang;
#X obj 184 102 r aPitch;
#X obj 197 275 * 1000;
#X obj 191 147 t b f;
#X connect 0 0 2 0;
#X connect 2 0 5 0;
#X connect 3 0 8 0;
#X connect 4 0 3 0;
#X connect 5 0 4 0;
#X connect 6 0 12 0;
#X connect 7 0 9 0;
#X connect 8 0 1 0;
#X connect 9 0 5 1;
#X connect 11 0 2 1;
#X connect 11 0 13 0;
#X connect 12 0 5 2;
#X connect 13 0 9 0;
#X connect 13 1 9 1;
#X restore 14 302 pd pitchChirpAbstract;
#N canvas 617 372 449 347 mixer 0;
#X obj 197 89 r aRichness;
#X obj 157 125 expr 1 - $f1;
#X obj 74 161 *~ 1;
#X text 73 66 Sine;
#X text 137 65 Rect;
#X obj 137 161 *~ 0;
#X obj 74 211 outlet~;
#X obj 74 88 inlet~;
#X obj 137 88 inlet~;
#X obj 74 185 *~ 0.8;
#X connect 0 0 1 0;
#X connect 0 0 5 1;
#X connect 1 0 2 1;
#X connect 2 0 9 0;
#X connect 5 0 9 0;
#X connect 7 0 2 0;
#X connect 8 0 5 0;
#X connect 9 0 6 0;
#X restore 14 432 pd mixer;
#N canvas 962 398 667 393 AM 0;
#X obj 89 83 inlet~;
#X text 88 59 Signal in;
#X obj 206 85 r aAmFreq;
#X obj 280 84 r aAmDepth;
#X text 201 56 Depth 1st \; Freq 2nd;
#X obj 206 119 osc~;
#X obj 206 180 *~, f 11;
#X msg 280 109 \$1 50;
#X obj 280 132 line~;
#X obj 206 217 +~, f 20;
#X obj 342 108 expr 1 - $f1;
#X msg 342 132 \$1 50;
#X obj 342 155 line~;
#X text 413 148 Line~ smoothes out the changes;
#X obj 90 269 *~;
#X obj 90 319 outlet~;
#X connect 0 0 14 0;
#X connect 2 0 5 0;
#X connect 3 0 7 0;
#X connect 3 0 10 0;
#X connect 5 0 6 0;
#X connect 6 0 9 0;
#X connect 7 0 8 0;
#X connect 8 0 6 1;
#X connect 9 0 14 1;
#X connect 10 0 11 0;
#X connect 11 0 12 0;
#X connect 12 0 9 1;
#X connect 14 0 15 0;
#X restore 14 466 pd AM;
#X obj 13 52 r trigger;
#X floatatom 47 170 5 0 0 0 - - -, f 5;
#X floatatom 96 170 5 0 0 0 - - -, f 5;
#X floatatom 167 170 5 0 0 0 - - -, f 5;
#X floatatom 239 170 5 0 0 0 - - -, f 5;
#X floatatom 303 170 5 0 0 0 - - -, f 5;
#X floatatom 370 170 5 0 0 0 - - -, f 5;
#X floatatom 458 170 5 0 0 0 - - -, f 5;
#X floatatom 540 170 5 0 0 0 - - -, f 5;
#X floatatom 622 170 5 0 0 0 - - -, f 5;
#X floatatom 698 170 5 0 0 0 - - -, f 5;
#X obj 49 140 unpack f f f f f f f f f f f, f 106;
#X obj 48 270 del 1;
#X obj 12 563 dac~;
#X obj 14 526 clip~ -0.999 0.999;
#X obj 14 496 lop~ 8000;
#X obj 698 198 / 5;
#X connect 0 0 12 0;
#X connect 1 0 21 0;
#X connect 1 0 36 0;
#X connect 12 0 1 0;
#X connect 12 1 35 0;
#X connect 14 0 16 0;
#X connect 14 0 17 0;
#X connect 16 0 18 0;
#X connect 17 0 19 0;
#X connect 18 0 22 0;
#X connect 19 0 22 1;
#X connect 20 0 18 1;
#X connect 20 0 19 1;
#X connect 21 0 14 0;
#X connect 22 0 23 0;
#X connect 23 0 39 0;
#X connect 24 0 1 0;
#X connect 25 0 2 0;
#X connect 26 0 3 0;
#X connect 27 0 4 0;
#X connect 28 0 5 0;
#X connect 29 0 6 0;
#X connect 30 0 7 0;
#X connect 31 0 8 0;
#X connect 32 0 9 0;
#X connect 33 0 10 0;
#X connect 34 0 40 0;
#X connect 35 1 25 0;
#X connect 35 2 26 0;
#X connect 35 3 27 0;
#X connect 35 4 28 0;
#X connect 35 5 29 0;
#X connect 35 6 30 0;
#X connect 35 7 31 0;
#X connect 35 8 32 0;
#X connect 35 9 33 0;
#X connect 35 10 34 0;
#X connect 36 0 20 0;
#X connect 38 0 37 0;
#X connect 38 0 37 1;
#X connect 39 0 38 0;
#X connect 40 0 11 0;
